<svg width="175" height="200" viewBox="0 0 175 200" fill="none" xmlns="http://www.w3.org/2000/svg">
<path d="M114.297 66.8359L97.5391 83.5938L97.4219 50L114.297 66.8359V66.8359ZM97.4219 152.695L114.258 135.859L97.5 119.102L97.4219 152.695V152.695ZM162.5 101.328C162.5 181.641 134.414 200 90.1953 200C45.9766 200 12.5 181.641 12.5 101.328C12.5 21.0156 45.0781 0 89.2969 0C133.516 0 162.5 21.0547 162.5 101.328ZM100.586 101.328L131.602 66.7188L82.7344 14.2578V83.3594L53.9062 54.5313L43.3594 65.0391L79.5703 101.367L43.3594 137.695L53.8672 148.203L82.6953 119.375L83.5938 185.781L133.359 135.977L100.586 101.328Z" fill="#8BCD5B"/>
</svg>
