<svg width="200" height="200" viewBox="0 0 200 200" fill="none" xmlns="http://www.w3.org/2000/svg">
<g clip-path="url(#clip0_129_12)">
<path d="M0 87.5C0 73.7109 11.1914 62.5 25 62.5H50V112.5C50 133.203 66.4453 150 87.5 150H137.5V175C137.5 188.789 126.289 200 112.5 200H25C11.1914 200 0 188.789 0 175V87.5ZM87.5 137.5C73.7109 137.5 62.5 126.289 62.5 112.5V25C62.5 11.1914 73.7109 0 87.5 0H175C188.789 0 200 11.1914 200 25V112.5C200 126.289 188.789 137.5 175 137.5H87.5Z" fill="#8BCD5B"/>
</g>
<defs>
<clipPath id="clip0_129_12">
<rect width="200" height="200" fill="white"/>
</clipPath>
</defs>
</svg>
