<svg width="200" height="200" viewBox="0 0 200 200" fill="none" xmlns="http://www.w3.org/2000/svg">
<path d="M200 13.0435V56.5217C200 59.9811 198.626 63.2987 196.18 65.7449C193.734 68.191 190.416 69.5652 186.957 69.5652C183.497 69.5652 180.18 68.191 177.733 65.7449C175.287 63.2987 173.913 59.9811 173.913 56.5217V26.087H143.478C140.019 26.087 136.701 24.7127 134.255 22.2666C131.809 19.8205 130.435 16.5028 130.435 13.0435C130.435 9.58413 131.809 6.26647 134.255 3.82034C136.701 1.37422 140.019 0 143.478 0H186.957C190.416 8.07147e-05 193.733 1.37433 196.18 3.82044C198.626 6.26654 200 9.58416 200 13.0435V13.0435ZM56.5217 173.913H26.087V143.478C26.087 140.019 24.7127 136.701 22.2666 134.255C19.8205 131.809 16.5028 130.435 13.0435 130.435C9.58413 130.435 6.26647 131.809 3.82034 134.255C1.37422 136.701 0 140.019 0 143.478V186.957C8.07147e-05 190.416 1.37433 193.733 3.82044 196.18C6.26654 198.626 9.58416 200 13.0435 200H56.5217C59.9811 200 63.2987 198.626 65.7449 196.18C68.191 193.734 69.5652 190.416 69.5652 186.957C69.5652 183.497 68.191 180.18 65.7449 177.733C63.2987 175.287 59.9811 173.913 56.5217 173.913ZM186.957 130.435C183.497 130.435 180.18 131.809 177.733 134.255C175.287 136.701 173.913 140.019 173.913 143.478V173.913H143.478C140.019 173.913 136.701 175.287 134.255 177.733C131.809 180.18 130.435 183.497 130.435 186.957C130.435 190.416 131.809 193.734 134.255 196.18C136.701 198.626 140.019 200 143.478 200H186.957C190.416 200 193.733 198.626 196.18 196.18C198.626 193.733 200 190.416 200 186.957V143.478C200 140.019 198.626 136.701 196.18 134.255C193.733 131.809 190.416 130.435 186.957 130.435V130.435ZM56.5217 0H13.0435C9.58416 8.07147e-05 6.26654 1.37433 3.82044 3.82044C1.37433 6.26654 8.07147e-05 9.58416 0 13.0435V56.5217C0 59.9811 1.37422 63.2987 3.82034 65.7449C6.26647 68.191 9.58413 69.5652 13.0435 69.5652C16.5028 69.5652 19.8205 68.191 22.2666 65.7449C24.7127 63.2987 26.087 59.9811 26.087 56.5217V26.087H56.5217C59.9811 26.087 63.2987 24.7127 65.7449 22.2666C68.191 19.8205 69.5652 16.5028 69.5652 13.0435C69.5652 9.58413 68.191 6.26647 65.7449 3.82034C63.2987 1.37422 59.9811 0 56.5217 0Z" fill="#93A4C3"/>
</svg>
