<svg width="200" height="178" viewBox="0 0 200 178" fill="none" xmlns="http://www.w3.org/2000/svg">
<g clip-path="url(#clip0_86_179)">
<path d="M167.465 66.5179C179.34 66.5179 200 76.5648 200 88.6905C200 101.163 179.34 110.863 167.465 110.863H126.979L92.0833 171.803C90.1042 175.233 86.4236 177.381 82.4306 177.381H62.9167C59.2361 177.381 56.5625 173.847 57.5694 170.313L74.6181 110.863H38.8889L23.8889 130.818C22.8403 132.204 21.1944 133.036 19.4444 133.036H4.87153C2.18194 133.036 0 130.853 0 127.874C0 127.735 0.063125 127.285 0.187431 126.834L11.1111 88.6905L0.187431 50.5466C0.063125 50.0963 0 49.6459 0 49.1955C0 46.5279 2.18194 44.3452 4.87153 44.3452H19.4444C21.1944 44.3452 22.8403 45.1767 23.8889 46.5625L38.8889 66.5179H74.6181L57.5694 7.06752C56.5625 3.52337 59.2361 0 62.9167 0H82.4306C86.4236 0 90.1042 2.13169 92.0833 5.58473L126.979 66.5179H167.465Z" fill="#41A7FC"/>
</g>
<defs>
<clipPath id="clip0_86_179">
<rect width="200" height="177.381" fill="white"/>
</clipPath>
</defs>
</svg>
