<svg width="200" height="160" viewBox="0 0 200 160" fill="none" xmlns="http://www.w3.org/2000/svg">
<path d="M99.7188 109.719C88.6719 109.719 79.7188 118.675 79.7188 129.722C79.7188 140.769 88.675 149.725 99.7188 149.725C110.763 149.725 119.719 140.769 119.719 129.722C119.719 118.675 111.031 109.719 99.7188 109.719ZM100 59.7188C78.0469 59.7188 56.9063 67.7188 40.4688 82.2281C36.3438 86.1563 35.9375 92.4688 39.5938 96.625C43.2813 100.75 49.5938 101.156 53.7188 97.5C66.5 86.2188 82.9375 80 100 80C117.063 80 133.531 86.2125 146.281 97.5C148.188 99.1875 150.563 100 152.906 100C155.67 100 158.425 98.8575 160.406 96.6219C164.063 92.4688 163.688 86.1563 159.531 82.5C143.094 68 121.969 59.7188 100 59.7188ZM196.938 48.9688C170.719 23.8375 136.313 10 100 10C63.6875 10 29.2782 23.8375 3.0763 48.9688C-0.908075 52.7969 -1.0362 59.125 2.78333 63.1094C6.60208 67.1031 12.9302 67.2094 16.924 63.4023C39.0938 41.5938 68.875 30 100 30C131.125 30 160.344 41.8656 183.063 63.4063C185.031 65.25 187.5 66.1875 190 66.1875C192.627 66.1875 195.253 65.1622 197.216 63.1113C201.031 59.125 200.906 52.5313 196.938 48.9688Z" fill="#8BCD5B"/>
</svg>
