<svg width="175" height="200" viewBox="0 0 175 200" fill="none" xmlns="http://www.w3.org/2000/svg">
<path d="M62.5 12.5V25H112.5V12.5C112.5 5.59766 118.086 0 125 0C131.914 0 137.5 5.59766 137.5 12.5V25H156.25C166.602 25 175 33.3945 175 43.75V62.5H0V43.75C0 33.3945 8.39453 25 18.75 25H37.5V12.5C37.5 5.59766 43.0859 0 50 0C56.9141 0 62.5 5.59766 62.5 12.5ZM0 75H175V181.25C175 191.602 166.602 200 156.25 200H18.75C8.39453 200 0 191.602 0 181.25V75ZM31.25 100C27.7969 100 25 102.812 25 106.25V143.75C25 147.188 27.7969 150 31.25 150H68.75C72.1875 150 75 147.188 75 143.75V106.25C75 102.812 72.1875 100 68.75 100H31.25Z" fill="#141B24"/>
</svg>
