<svg width="200" height="200" viewBox="0 0 200 200" fill="none" xmlns="http://www.w3.org/2000/svg">
<path d="M100 200C44.7656 200 0 155.234 0 100C0 44.7656 44.7656 0 100 0C155.234 0 200 44.7656 200 100C200 155.234 155.234 200 100 200ZM90.625 100C90.625 103.125 92.1875 106.055 94.8047 107.461L132.305 132.461C136.602 135.664 142.422 134.492 144.961 130.195C148.164 125.898 146.992 120.078 142.695 117.188L109.375 95V46.875C109.375 41.6797 105.195 37.5 99.6484 37.5C94.8047 37.5 90.2734 41.6797 90.2734 46.875L90.625 100Z" fill="#141B24"/>
</svg>
