<svg width="200" height="200" viewBox="0 0 200 200" fill="none" xmlns="http://www.w3.org/2000/svg">
<path d="M112.5 100C112.5 106.914 106.914 112.5 100 112.5C93.0859 112.5 87.5 106.914 87.5 100V12.5C87.5 5.59766 93.0859 0 100 0C106.914 0 112.5 5.59766 112.5 12.5V100ZM31.25 100C31.25 137.969 62.0313 168.75 100 168.75C137.969 168.75 168.75 137.969 168.75 100C168.75 78.75 159.102 59.7266 143.945 47.1094C138.633 42.6953 137.891 34.8164 142.305 29.5078C146.719 24.1992 154.609 23.4766 159.922 27.8906C180.547 45.0781 193.75 71.0156 193.75 99.6484C193.75 151.758 151.758 193.75 100 193.75C48.2422 193.75 6.25 151.758 6.25 99.6484C6.25 71.0156 19.4336 45.0781 40.0781 27.8906C45.3906 23.4766 53.2812 24.1992 57.6953 29.5078C61.7578 34.8164 61.3672 42.6953 56.0547 47.1094C40.8984 59.7266 31.25 78.75 31.25 100Z" fill="#141B24"/>
</svg>
