<svg width="16" height="16" viewBox="0 0 16 16" fill="none" xmlns="http://www.w3.org/2000/svg">
<g clip-path="url(#clip0_62_43)">
<path d="M8 4.97193C6.34313 4.97193 5.02813 6.31506 5.02813 7.94381C5.02813 9.57256 6.31563 10.9719 8 10.9719C9.68438 10.9719 10.9719 9.62881 10.9719 8.00006C10.9719 6.37131 9.65625 4.97193 8 4.97193ZM15.9156 10.8438L13.9406 7.97193L15.9141 5.12787C16.1119 4.84271 15.9486 4.44849 15.607 4.38662L12.2008 3.77099L11.5851 0.364743C11.5234 0.0231805 11.1292 -0.140257 10.8439 0.057743L8 2.05912L5.12813 0.0855555C4.84297 -0.11232 4.44875 0.0509617 4.38688 0.392555L3.8 3.80006L0.392503 4.41568C0.0510339 4.47506 -0.112372 4.87193 0.0855026 5.12818L2.05907 8.00006L0.0856276 10.8441C-0.112247 11.1293 0.0510963 11.5235 0.392628 11.5854L3.79888 12.201L4.4145 15.6072C4.47622 15.9488 4.87044 16.1122 5.15575 15.9142L8 13.9407L10.8441 15.9141C11.1293 16.1121 11.5238 15.9487 11.5853 15.6072L12.2009 12.2009L15.6072 11.5853C15.95 11.5251 16.1125 11.1282 15.9156 10.8438ZM8 11.9719C5.79094 11.9719 4.02813 10.181 4.02813 8.00006C4.02813 5.79099 5.81907 4.02818 8 4.02818C10.1809 4.02818 11.9719 5.81881 11.9719 8.00006C11.9719 10.2094 10.2094 11.9719 8 11.9719Z" fill="#93A4C3"/>
</g>
<defs>
<clipPath id="clip0_62_43">
<rect width="16" height="16" fill="white"/>
</clipPath>
</defs>
</svg>
