<svg width="200" height="200" viewBox="0 0 200 200" fill="none" xmlns="http://www.w3.org/2000/svg">
<path d="M50 150H137.5V175H50C36.1914 175 25 163.789 25 150V50H12.5C5.59766 50 0 44.4141 0 37.5C0 30.5977 5.59766 25 12.5 25H25V12.5C25 5.59766 30.5977 0 37.5 0C44.4141 0 50 5.59766 50 12.5V150ZM150 50H62.5V25H150C163.789 25 175 36.1914 175 50V150H187.5C194.414 150 200 155.586 200 162.5C200 169.414 194.414 175 187.5 175H175V187.5C175 194.414 169.414 200 162.5 200C155.586 200 150 194.414 150 187.5V50Z" fill="#93A4C3"/>
</svg>
