<svg width="200" height="200" viewBox="0 0 200 200" fill="none" xmlns="http://www.w3.org/2000/svg">
<path d="M199.648 143.398C199.648 160.656 182.859 174.648 162.5 174.648C142.141 174.648 125.352 160.656 125.352 143.75C125.352 126.492 142.141 112.852 162.5 112.852C166.906 112.852 171.074 113.602 175.004 114.765V57.8516L75 87.5L74.9991 168.789C74.6484 186.016 58.2031 200 37.1484 200C16.0937 200 0 186.016 0 168.75C0 151.492 16.7891 137.852 37.1484 137.852C41.5547 137.852 45.7227 138.602 49.6484 139.765V49.4141C49.6484 44.3477 53.5781 39.0117 58.4023 37.4922L183.051 0.582031C184.414 0.258398 186.445 0 187.5 0C194.398 0 199.988 5.60156 200 12.4961L199.648 143.398Z" fill="#141B24"/>
</svg>
