<svg width="175" height="200" viewBox="0 0 175 200" fill="none" xmlns="http://www.w3.org/2000/svg">
<g clip-path="url(#clip0_130_18)">
<path d="M87.5001 0C80.586 0 75.0001 5.58594 75.0001 12.5V20C46.4845 25.7813 25.0001 51.0156 25.0001 81.25V88.5938C25.0001 106.953 18.2423 124.687 6.05478 138.437L3.16415 141.68C-0.117096 145.352 -0.898347 150.625 1.09384 155.117C3.08603 159.609 7.57822 162.5 12.5001 162.5H162.5C167.422 162.5 171.875 159.609 173.906 155.117C175.938 150.625 175.117 145.352 171.836 141.68L168.945 138.437C156.758 124.687 150 106.992 150 88.5938V81.25C150 51.0156 128.516 25.7813 100 20V12.5C100 5.58594 94.4142 0 87.5001 0ZM105.195 192.695C109.883 188.008 112.5 181.641 112.5 175H87.5001H62.5001C62.5001 181.641 65.1173 188.008 69.8048 192.695C74.4923 197.383 80.8595 200 87.5001 200C94.1407 200 100.508 197.383 105.195 192.695Z" fill="#93A4C3"/>
</g>
<defs>
<clipPath id="clip0_130_18">
<rect width="175" height="200" fill="white"/>
</clipPath>
</defs>
</svg>
