<svg width="200" height="161" viewBox="0 0 200 161" fill="none" xmlns="http://www.w3.org/2000/svg">
<path d="M99.7188 110.209C88.6719 110.209 79.7188 119.205 79.7188 130.301C79.7188 141.397 88.675 150.393 99.7188 150.393C110.763 150.393 119.719 141.397 119.719 130.301C119.719 119.205 111.031 110.209 99.7188 110.209ZM100 59.9854C78.0469 59.9854 56.9063 68.0211 40.4688 82.5953C36.3438 86.5409 35.9375 92.8816 39.5938 97.0564C43.2813 101.2 49.5938 101.608 53.7188 97.9353C66.5 86.6037 82.9375 80.3572 100 80.3572C117.063 80.3572 133.531 86.5974 146.281 97.9353C148.188 99.6303 150.563 100.446 152.906 100.446C155.67 100.446 158.425 99.2989 160.406 97.0533C164.063 92.8816 163.688 86.5409 159.531 82.8683C143.094 68.3036 121.969 59.9854 100 59.9854ZM196.938 49.1874C170.719 23.944 136.313 10.0447 100 10.0447C63.6875 10.0447 29.2782 23.944 3.0763 49.1874C-0.908075 53.0326 -1.0362 59.389 2.78333 63.3912C6.60208 67.4027 12.9302 67.5095 16.924 63.6854C39.0938 41.7795 68.875 30.134 100 30.134C131.125 30.134 160.344 42.0526 183.063 63.6894C185.031 65.5413 187.5 66.483 190 66.483C192.627 66.483 195.253 65.4531 197.216 63.393C201.031 59.389 200.906 52.7658 196.938 49.1874Z" fill="#93A4C3"/>
</svg>
