<svg width="189" height="241" viewBox="0 0 189 241" fill="none" xmlns="http://www.w3.org/2000/svg">
<path d="M25.7106 241C18.5991 241 12.5362 238.498 7.52171 233.494C2.50724 228.491 0 222.441 0 215.344V101.804C0 94.7078 2.50724 88.6123 7.52171 83.5175C12.5362 78.4228 18.5991 75.8754 25.7106 75.8754H39.3864V55.6784C39.3864 40.2122 44.72 27.0659 55.3871 16.2395C66.0543 5.41317 79.0463 0 94.3632 0C109.68 0 122.672 5.41317 133.339 16.2395C144.007 27.0659 149.34 40.2122 149.34 55.6784V75.8754H163.016C170.127 75.8754 176.236 78.4228 181.342 83.5175C186.447 88.6123 189 94.7078 189 101.804V215.344C189 222.441 186.447 228.491 181.342 233.494C176.236 238.498 170.127 241 163.016 241H25.7106ZM25.7106 215.344H163.016V101.804H25.7106V215.344V215.344ZM94.3632 179.59C100.198 179.59 105.167 177.589 109.27 173.585C113.373 169.582 115.424 164.761 115.424 159.12C115.424 153.661 113.373 148.703 109.27 144.245C105.167 139.787 100.198 137.558 94.3632 137.558C88.5282 137.558 83.5593 139.787 79.4566 144.245C75.3538 148.703 73.3025 153.661 73.3025 159.12C73.3025 164.761 75.3538 169.582 79.4566 173.585C83.5593 177.589 88.5282 179.59 94.3632 179.59ZM65.097 75.8754H123.63V55.6784C123.63 47.1265 120.849 40.0302 115.287 34.3896C109.726 28.749 102.751 25.9287 94.3632 25.9287C86.1577 25.9287 79.2287 28.749 73.576 34.3896C67.9233 40.0302 65.097 47.1265 65.097 55.6784V75.8754ZM25.7106 215.344V101.804V215.344Z" fill="#93A4C3"/>
</svg>
