<svg width="242" height="241" viewBox="0 0 242 241" fill="none" xmlns="http://www.w3.org/2000/svg">
<path d="M171.873 175.983C168.951 173.066 167.49 169.627 167.49 165.668C167.49 161.709 168.951 158.27 171.873 155.353L191.909 135.348H101.746C97.5722 135.348 94.0763 133.941 91.2587 131.128C88.4411 128.315 87.0324 124.824 87.0324 120.656C87.0324 116.489 88.4411 112.998 91.2587 110.185C94.0763 107.372 97.5722 105.965 101.746 105.965H191.283L170.621 85.3346C167.908 82.834 166.603 79.604 166.708 75.6446C166.812 71.6853 168.325 68.2469 171.247 65.3294C174.169 62.412 177.717 61.0054 181.891 61.1096C186.066 61.2138 189.614 62.7246 192.536 65.642L237.617 110.654C239.078 112.112 240.174 113.727 240.904 115.499C241.635 117.27 242 119.093 242 120.969C242 122.844 241.635 124.668 240.904 126.439C240.174 128.21 239.078 129.825 237.617 131.284L192.536 176.296C189.822 179.005 186.483 180.359 182.517 180.359C178.552 180.359 175.004 178.901 171.873 175.983V175.983ZM29.7413 241C21.6016 241 14.6097 238.135 8.76585 232.404C2.92195 226.673 0 219.744 0 211.617V29.6952C0 21.5681 2.92195 14.5871 8.76585 8.75227C14.6097 2.91742 21.6016 0 29.7413 0H108.321C112.495 0 115.991 1.51081 118.809 4.53243C121.626 7.55404 123.035 11.0445 123.035 15.0039C123.035 19.1716 121.626 22.6621 118.809 25.4754C115.991 28.2886 112.495 29.6952 108.321 29.6952H29.7413V211.617H108.321C112.495 211.617 115.991 213.024 118.809 215.837C121.626 218.65 123.035 222.141 123.035 226.309C123.035 230.476 121.626 233.967 118.809 236.78C115.991 239.593 112.495 241 108.321 241H29.7413Z" fill="#93A4C3"/>
</svg>
