<svg width="212" height="241" viewBox="0 0 212 241" fill="none" xmlns="http://www.w3.org/2000/svg">
<path d="M79.9595 240.288C56.8805 234.8 37.7842 222.704 22.6705 204.001C7.55684 185.299 0 163.648 0 139.05C0 125.633 2.70616 112.775 8.1185 100.476C13.5308 88.1769 21.2409 77.6567 31.2486 68.9152C33.4952 65.6626 36.8141 64.0363 41.2052 64.0363C45.5963 64.0363 49.3237 65.5609 52.3873 68.6103C54.8382 71.0498 56.0636 74.0483 56.0636 77.6059C56.0636 81.1634 54.736 84.3652 52.0809 87.2113C44.7283 93.7166 39.0096 101.543 34.9249 110.691C30.8401 119.839 28.7977 129.292 28.7977 139.05C28.7977 156.736 34.1079 172.237 44.7283 185.553C55.3487 198.868 68.9306 207.559 85.474 211.625C88.7418 212.844 91.448 214.776 93.5925 217.418C95.737 220.061 96.8092 223.009 96.8092 226.262C96.8092 231.344 95.0732 235.257 91.6012 238.001C88.1291 240.746 84.2486 241.508 79.9595 240.288V240.288ZM132.347 240.288C127.854 241.712 123.871 241 120.399 238.154C116.927 235.308 115.191 231.445 115.191 226.566C115.191 223.517 116.263 220.569 118.408 217.723C120.552 214.877 123.258 212.844 126.526 211.625C143.274 207.559 156.855 198.868 167.272 185.553C177.688 172.237 182.896 156.736 182.896 139.05C182.896 118.721 176.003 101.238 162.217 86.6014C148.431 71.9646 131.326 64.0363 110.902 62.8165H103.855L116.11 75.0139C117.948 77.0468 118.867 79.5879 118.867 82.6373C118.867 85.6866 117.948 88.2278 116.11 90.2606C113.863 92.4968 111.157 93.6149 107.991 93.6149C104.826 93.6149 102.222 92.4968 100.179 90.2606L66.4798 57.0228C65.0501 55.5997 63.9778 54.0242 63.263 52.2963C62.5482 50.5683 62.1907 48.7895 62.1907 46.9599C62.1907 44.927 62.5482 43.0974 63.263 41.4711C63.9778 39.8448 65.0501 38.3201 66.4798 36.8971L100.179 2.74441C102.222 0.914804 104.826 0 107.991 0C111.157 0 113.863 0.914804 116.11 2.74441C117.948 4.9806 118.867 7.67419 118.867 10.8252C118.867 13.9762 117.948 16.5681 116.11 18.601L100.486 33.8477H107.838C136.84 33.8477 161.451 44.1647 181.671 64.7986C201.89 85.4325 212 110.183 212 139.05C212 163.648 204.443 185.299 189.329 204.001C174.216 222.704 155.222 234.8 132.347 240.288V240.288Z" fill="#93A4C3"/>
</svg>
