<svg width="222" height="241" viewBox="0 0 222 241" fill="none" xmlns="http://www.w3.org/2000/svg">
<path d="M121.19 213.935C130.672 213.935 140.629 212.083 151.06 208.38C161.491 204.676 171.828 198.741 182.069 190.574C161.017 183.356 143.759 174.05 130.293 162.654C116.828 151.258 106.586 138.533 99.569 124.478C92.5517 110.423 88.4267 95.4187 87.194 79.4646C85.9612 63.5105 86.9569 47.2714 90.181 30.7475C69.6983 40.0541 54.0043 52.3046 43.0991 67.499C32.194 82.6934 26.7414 99.882 26.7414 119.065C26.7414 146.605 35.5603 169.301 53.1983 187.155C70.8362 205.008 93.5 213.935 121.19 213.935V213.935ZM121.19 241C103.741 241 87.5733 237.914 72.6853 231.741C57.7974 225.568 44.9957 217.069 34.2802 206.243C23.5647 195.417 15.1724 182.549 9.10345 167.64C3.03448 152.73 0 136.539 0 119.065C0 86.9668 10.431 60.2816 31.2931 39.0095C52.1552 17.7373 76.7155 4.82211 104.974 0.263792C111.422 -0.685858 116.164 0.928546 119.198 5.107C122.233 9.28546 122.612 14.6985 120.336 21.346C114.647 38.6296 112.371 55.4384 113.509 71.7724C114.647 88.1064 118.914 102.968 126.31 116.358C133.707 129.749 144.138 141.097 157.603 150.403C171.069 159.71 187.474 165.883 206.819 168.922C213.836 170.061 218.483 172.863 220.759 177.326C223.034 181.789 222.181 186.585 218.198 191.713C205.871 206.718 191.22 218.683 174.246 227.61C157.272 236.537 139.586 241 121.19 241Z" fill="#93A4C3"/>
</svg>
